<svg xmlns="http://www.w3.org/2000/svg" viewBox="0 0 960 360" role="img" aria-label="Accepted quadrature candidate nodes weights and residual errors">
  <rect width="960" height="360" fill="#000"/>
  <text x="52" y="48" fill="#9c9c9c" font-family="Inter, Arial, sans-serif" font-size="15" letter-spacing="4">ACCEPTED RULE</text>
  <text x="686" y="48" fill="#9c9c9c" font-family="Inter, Arial, sans-serif" font-size="15" letter-spacing="4">RESIDUAL ERROR</text>
  <path d="M 92 232 H 604" stroke="#3b3b3b" stroke-width="2"/>
  <line x1="131.5" y1="232" x2="131.5" y2="100.1" stroke="#fff" stroke-width="3" stroke-linecap="round"/>
  <circle cx="131.5" cy="100.1" r="6" fill="#168cff"/>
  <text x="108.5" y="258" fill="#777" font-family="Inter, Arial, sans-serif" font-size="12">0.077</text>
  <line x1="258.6" y1="232" x2="258.6" y2="100.0" stroke="#fff" stroke-width="3" stroke-linecap="round"/>
  <circle cx="258.6" cy="100.0" r="6" fill="#168cff"/>
  <text x="235.6" y="258" fill="#777" font-family="Inter, Arial, sans-serif" font-size="12">0.325</text>
  <line x1="348.0" y1="232" x2="348.0" y2="100.0" stroke="#fff" stroke-width="3" stroke-linecap="round"/>
  <circle cx="348.0" cy="100.0" r="6" fill="#168cff"/>
  <text x="325.0" y="258" fill="#777" font-family="Inter, Arial, sans-serif" font-size="12">0.500</text>
  <line x1="437.4" y1="232" x2="437.4" y2="100.1" stroke="#fff" stroke-width="3" stroke-linecap="round"/>
  <circle cx="437.4" cy="100.1" r="6" fill="#168cff"/>
  <text x="414.4" y="258" fill="#777" font-family="Inter, Arial, sans-serif" font-size="12">0.675</text>
  <line x1="564.5" y1="232" x2="564.5" y2="100.4" stroke="#fff" stroke-width="3" stroke-linecap="round"/>
  <circle cx="564.5" cy="100.4" r="6" fill="#168cff"/>
  <text x="541.5" y="258" fill="#777" font-family="Inter, Arial, sans-serif" font-size="12">0.923</text>
  <text x="92" y="306" fill="#bdbdbd" font-family="Inter, Arial, sans-serif" font-size="15">node position</text>
  <text x="344" y="306" fill="#bdbdbd" font-family="Inter, Arial, sans-serif" font-size="15">bar height = normalized weight</text>
  <text x="686" y="148" fill="#bdbdbd" font-family="Inter, Arial, sans-serif" font-size="15">sin_pi</text>
  <rect x="790" y="132" width="210.0" height="18" fill="#fff" opacity="0.9"/>
  <text x="1015.0" y="148" fill="#777" font-family="Inter, Arial, sans-serif" font-size="13">0.001029</text>
  <text x="686" y="196" fill="#bdbdbd" font-family="Inter, Arial, sans-serif" font-size="15">sqrt</text>
  <rect x="790" y="180" width="125.3" height="18" fill="#fff" opacity="0.9"/>
  <text x="930.3" y="196" fill="#777" font-family="Inter, Arial, sans-serif" font-size="13">0.000614</text>
  <text x="686" y="244" fill="#bdbdbd" font-family="Inter, Arial, sans-serif" font-size="15">log1p</text>
  <rect x="790" y="228" width="57.6" height="18" fill="#fff" opacity="0.9"/>
  <text x="862.6" y="244" fill="#777" font-family="Inter, Arial, sans-serif" font-size="13">0.000282</text>
</svg>
