<svg xmlns="http://www.w3.org/2000/svg" viewBox="0 0 960 360" role="img" aria-label="Objective curve">
  <rect width="960" height="360" fill="#000"/>
  <path d="M 44 316 H 916" stroke="#333" stroke-width="1" fill="none"/>
  <path d="M 44 44 V 316" stroke="#333" stroke-width="1" fill="none"/>
  <polyline points="44.00,49.01 54.38,44.00 64.76,84.25 75.14,49.01 85.52,49.01 95.90,97.65 106.29,84.25 116.67,44.00 127.05,220.32 137.43,172.76 147.81,84.25 158.19,220.32 168.57,172.76 178.95,49.01 189.33,220.32 199.71,49.01 210.10,84.25 220.48,84.25 230.86,70.53 241.24,220.32 251.62,70.53 262.00,84.25 272.38,172.76 282.76,172.76 293.14,246.62 303.52,70.53 313.90,262.30 324.29,81.69 334.67,49.01 345.05,70.53 355.43,70.53 365.81,70.53 376.19,179.14 386.57,190.16 396.95,70.53 407.33,70.53 417.71,84.25 428.10,70.53 438.48,238.25 448.86,84.25 459.24,238.25 469.62,296.09 480.00,296.09 490.38,194.33 500.76,190.16 511.14,316.00 521.52,254.63 531.90,262.30 542.29,296.09 552.67,296.09 563.05,254.63 573.43,70.53 583.81,155.55 594.19,258.80 604.57,220.32 614.95,160.29 625.33,84.25 635.71,220.32 646.10,300.23 656.48,179.14 666.86,84.25 677.24,172.76 687.62,172.76 698.00,179.14 708.38,310.61 718.76,70.53 729.14,190.16 739.52,200.68 749.90,172.76 760.29,308.01 770.67,220.32 781.05,190.16 791.43,296.09 801.81,220.32 812.19,179.14 822.57,307.30 832.95,155.55 843.33,179.14 853.71,310.61 864.10,186.54 874.48,200.68 884.86,190.16 895.24,220.32 905.62,155.55 916.00,307.30" fill="none" stroke="#fff" stroke-width="3" stroke-linejoin="round" stroke-linecap="round"/>
  <circle cx="44.00" cy="49.01" r="5" fill="#168cff"/>
  <circle cx="916.00" cy="307.30" r="5" fill="#fff"/>
</svg>
