<svg xmlns="http://www.w3.org/2000/svg" viewBox="0 0 960 360" role="img" aria-label="Best-so-far quadrature objective curve">
  <rect width="960" height="360" fill="#000"/>
  <text x="52" y="48" fill="#9c9c9c" font-family="Inter, Arial, sans-serif" font-size="15" letter-spacing="4">BEST-SO-FAR OBJECTIVE</text>
  <text x="52" y="322" fill="#777" font-family="Inter, Arial, sans-serif" font-size="14">gen 0</text>
  <text x="830" y="322" fill="#777" font-family="Inter, Arial, sans-serif" font-size="14">gen 99</text>
  <text x="735" y="50" fill="#fff" font-family="Inter, Arial, sans-serif" font-size="24" font-weight="600">114.515</text>
  <text x="735" y="75" fill="#9c9c9c" font-family="Inter, Arial, sans-serif" font-size="13" letter-spacing="2">BEST OBJECTIVE</text>
  <path d="M 88 74 V 266 H 864" stroke="#2f2f2f" stroke-width="1" fill="none"/>
  <path d="M 88 112 H 864 M 88 154 H 864 M 88 196 H 864 M 88 238 H 864" stroke="#151515" stroke-width="1" fill="none"/>
  <polyline points="88.00,266.00 95.84,266.00 95.84,240.66 95.84,240.66 95.84,240.66 103.68,231.02 103.68,231.02 103.68,231.02 111.52,142.81 111.52,142.81 111.52,142.81 111.52,142.81 119.35,142.81 127.19,142.81 127.19,142.81 135.03,142.81 142.87,142.81 142.87,142.81 150.71,142.81 158.55,142.81 158.55,142.81 158.55,142.81 166.38,142.81 174.22,142.81 189.90,123.89 205.58,123.89 205.58,112.62 221.25,112.62 221.25,112.62 229.09,112.62 252.61,112.62 260.44,112.62 260.44,112.62 291.80,112.62 299.64,112.62 299.64,112.62 315.31,112.62 315.31,112.62 323.15,112.62 323.15,112.62 338.83,112.62 346.67,88.32 354.51,88.32 362.34,88.32 370.18,88.32 378.02,74.00 378.02,74.00 378.02,74.00 385.86,74.00 385.86,74.00 393.70,74.00 393.70,74.00 401.54,74.00 409.37,74.00 409.37,74.00 425.05,74.00 425.05,74.00 432.89,74.00 464.24,74.00 479.92,74.00 511.27,74.00 534.79,74.00 550.46,74.00 550.46,74.00 550.46,74.00 566.14,74.00 573.98,74.00 581.82,74.00 589.66,74.00 597.49,74.00 628.85,74.00 628.85,74.00 628.85,74.00 636.69,74.00 660.20,74.00 675.88,74.00 691.56,74.00 707.23,74.00 722.91,74.00 738.59,74.00 754.26,74.00 824.81,74.00 832.65,74.00 840.48,74.00 864.00,74.00" fill="none" stroke="#fff" stroke-width="4" stroke-linejoin="round" stroke-linecap="round"/>
  <circle cx="88" cy="74" r="6" fill="#168cff"/>
  <circle cx="378.02" cy="266" r="6" fill="#fff"/>
  <text x="108" y="92" fill="#bdbdbd" font-family="Inter, Arial, sans-serif" font-size="14">seed 688.676</text>
  <text x="590" y="286" fill="#bdbdbd" font-family="Inter, Arial, sans-serif" font-size="14">best retained at generation 37</text>
</svg>
