<svg xmlns="http://www.w3.org/2000/svg" viewBox="0 0 64 64" role="img" aria-labelledby="title">
  <title>Göther Labs</title>
  <defs>
    <linearGradient id="g" x1="0%" y1="0%" x2="100%" y2="100%">
      <stop offset="0%" stop-color="#0f6c5d" />
      <stop offset="100%" stop-color="#16453e" />
    </linearGradient>
  </defs>
  <rect width="64" height="64" rx="18" fill="url(#g)" />
  <path
    d="M20 31.5c0-7.6 4.8-12.2 11.8-12.2 4.5 0 8.3 1.6 10.8 4.8l-4.2 3.3c-1.5-1.8-3.7-2.8-6.2-2.8-4.2 0-6.8 2.7-6.8 6.9 0 4.3 2.6 7 6.8 7 2.4 0 4.7-1 6.2-2.9l4.2 3.2c-2.5 3.3-6.3 4.9-10.8 4.9-7 0-11.8-4.6-11.8-12.2Z"
    fill="#fff"
  />
  <circle cx="46.2" cy="19.5" r="4.2" fill="#e3874f" />
</svg>
