<svg xmlns="http://www.w3.org/2000/svg" viewBox="0 0 960 360" role="img"
  aria-label="Storage dispatch trace">
  <rect width="960" height="360" fill="#000"/>
  <path d="M 44 316 H 916" stroke="#333" stroke-width="1" fill="none"/>
  <path d="M 44.00 316.00 V 270.00" stroke="#168cff" stroke-width="5" stroke-linecap="round"/><path d="M 119.83 316.00 V 362.00" stroke="#168cff" stroke-width="5" stroke-linecap="round"/><path d="M 157.74 316.00 V 362.00" stroke="#168cff" stroke-width="5" stroke-linecap="round"/><path d="M 195.65 316.00 V 362.00" stroke="#168cff" stroke-width="5" stroke-linecap="round"/><path d="M 271.48 316.00 V 270.00" stroke="#168cff" stroke-width="5" stroke-linecap="round"/><path d="M 309.39 316.00 V 270.00" stroke="#168cff" stroke-width="5" stroke-linecap="round"/><path d="M 347.30 316.00 V 270.00" stroke="#168cff" stroke-width="5" stroke-linecap="round"/><path d="M 385.22 316.00 V 288.06" stroke="#168cff" stroke-width="5" stroke-linecap="round"/><path d="M 536.87 316.00 V 362.00" stroke="#168cff" stroke-width="5" stroke-linecap="round"/><path d="M 574.78 316.00 V 362.00" stroke="#168cff" stroke-width="5" stroke-linecap="round"/><path d="M 612.70 316.00 V 362.00" stroke="#168cff" stroke-width="5" stroke-linecap="round"/><path d="M 650.61 316.00 V 362.00" stroke="#168cff" stroke-width="5" stroke-linecap="round"/><path d="M 688.52 316.00 V 325.68" stroke="#168cff" stroke-width="5" stroke-linecap="round"/><path d="M 802.26 316.00 V 270.00" stroke="#168cff" stroke-width="5" stroke-linecap="round"/><path d="M 840.17 316.00 V 270.00" stroke="#168cff" stroke-width="5" stroke-linecap="round"/><path d="M 878.09 316.00 V 279.08" stroke="#168cff" stroke-width="5" stroke-linecap="round"/><path d="M 916.00 316.00 V 362.00" stroke="#168cff" stroke-width="5" stroke-linecap="round"/>
  <polyline points="44.00,104.38 81.91,109.03 119.83,120.12 157.74,122.35 195.65,125.00 233.57,110.78 271.48,103.71 309.39,51.10 347.30,44.00 385.22,133.10 423.13,243.02 461.04,304.52 498.96,303.69 536.87,311.52 574.78,316.00 612.70,313.72 650.61,310.49 688.52,285.78 726.43,223.12 764.35,110.78 802.26,75.34 840.17,73.19 878.09,101.09 916.00,129.14" fill="none" stroke="#fff" stroke-width="3"
    stroke-linejoin="round" stroke-linecap="round"/>
</svg>
