<svg xmlns="http://www.w3.org/2000/svg" viewBox="0 0 960 360" role="img" aria-label="Accepted RCPSP gap diagnostics"><style>.bg{fill:#050608}.title{font:600 20px Inter,Arial,sans-serif;fill:#f8fafc}.label{font:13px Inter,Arial,sans-serif;fill:#c8d0de}.value{font:600 15px Inter,Arial,sans-serif;fill:#f8fafc}.small{font:12px Inter,Arial,sans-serif;fill:#8f98aa}</style><rect class="bg" width="960" height="360"/><text x="72" y="38" class="title">Accepted candidate diagnostics</text><text x="888" y="38" text-anchor="end" class="small">80 frozen PSPLIB J30 instances</text><g><text x="72" y="72" class="label">Mean gap</text><rect x="72" y="82" width="650" height="18" rx="9" fill="#161a22"/><rect x="72" y="82" width="157.0" height="18" rx="9" fill="#168cff"/><text x="748" y="96" class="value">6.038%</text></g>
<g><text x="72" y="134" class="label">p95 gap</text><rect x="72" y="144" width="650" height="18" rx="9" fill="#161a22"/><rect x="72" y="144" width="449.3" height="18" rx="9" fill="#168cff"/><text x="748" y="158" class="value">17.282%</text></g>
<g><text x="72" y="196" class="label">Max gap</text><rect x="72" y="206" width="650" height="18" rx="9" fill="#161a22"/><rect x="72" y="206" width="582.8" height="18" rx="9" fill="#f8fafc"/><text x="748" y="220" class="value">22.414%</text></g>
<g><text x="72" y="258" class="label">Exact optima</text><rect x="72" y="268" width="650" height="18" rx="9" fill="#161a22"/><rect x="72" y="268" width="154.4" height="18" rx="9" fill="#168cff"/><text x="748" y="282" class="value">19 / 80</text></g><text x="72" y="326" class="small">Feasibility penalty: 0.000 | invalid priority count: 0 | schedules validated: 80 / 80</text></svg>
