<svg xmlns="http://www.w3.org/2000/svg" viewBox="0 0 1200 900" role="img" aria-label="Task-level schedule compression from baseline to Evölther 2.0 for PSPLIB instance j3025_9">
  <style>.bg{fill:#050608}.guide{stroke:#151b26}.tickline{stroke:#202735;stroke-dasharray:3 5}.baseline{fill:#687386}.current{fill:#168cff}.opt{stroke:#f8fafc;stroke-width:2;stroke-dasharray:6 5}.finish{stroke-width:3}.baseFinish{stroke:#9aa4b2}.newFinish{stroke:#168cff}.title{fill:#f8fafc;font:600 25px Inter,Arial,sans-serif}.panel{fill:#f8fafc;font:600 18px Inter,Arial,sans-serif}.meta{fill:#8f98aa;font:14px Inter,Arial,sans-serif}.job{fill:#aeb7c5;font:12px Inter,Arial,sans-serif}.tick{fill:#8f98aa;font:12px Inter,Arial,sans-serif}.delta{fill:#168cff;font:700 17px Inter,Arial,sans-serif}</style>
  <rect class="bg" width="1200" height="900"/>
  <text class="title" x="74" y="46">Where the schedule compresses · j3025_9</text>
  <text class="meta" x="1120" y="46" text-anchor="end">same 30 executable activities · same evaluator</text>
  <text class="panel" x="110" y="92">Baseline</text><text class="meta" x="536" y="92" text-anchor="end">makespan 112</text>
  <text class="panel" x="650" y="92">Evölther 2.0</text><text class="delta" x="1076" y="92" text-anchor="end">makespan 92 · −20</text>
  <g><path class="tickline" d="M110 128V812M650 128V812"/><text class="tick" x="110" y="842" text-anchor="start">0</text><text class="tick" x="650" y="842" text-anchor="start">0</text></g><g><path class="tickline" d="M252 128V812M792 128V812"/><text class="tick" x="252" y="842" text-anchor="middle">40</text><text class="tick" x="792" y="842" text-anchor="middle">40</text></g><g><path class="tickline" d="M394 128V812M934 128V812"/><text class="tick" x="394" y="842" text-anchor="middle">80</text><text class="tick" x="934" y="842" text-anchor="middle">80</text></g><g><path class="tickline" d="M536 128V812M1076 128V812"/><text class="tick" x="536" y="842" text-anchor="end">120</text><text class="tick" x="1076" y="842" text-anchor="end">120</text></g>
  <line class="opt" x1="408.2" y1="116" x2="408.2" y2="812"/><line class="opt" x1="948.2" y1="116" x2="948.2" y2="812"/>
  <line class="finish baseFinish" x1="507.59999999999997" y1="116" x2="507.59999999999997" y2="812"/><line class="finish newFinish" x1="976.5999999999999" y1="116" x2="976.5999999999999" y2="812"/>
  <g><text class="job" x="74" y="157" text-anchor="end">J2</text><path class="guide" d="M88 161H1110"/><rect class="baseline" x="181.00" y="146" width="3.55" height="14" rx="2"><title>J2 · baseline 20–21</title></rect><rect class="current" x="696.15" y="146" width="3.55" height="14" rx="2"><title>J2 · Evölther 2.0 13–14</title></rect></g>
  <g><text class="job" x="74" y="179" text-anchor="end">J3</text><path class="guide" d="M88 183H1110"/><rect class="baseline" x="110.00" y="168" width="24.85" height="14" rx="2"><title>J3 · baseline 0–7</title></rect><rect class="current" x="671.30" y="168" width="24.85" height="14" rx="2"><title>J3 · Evölther 2.0 6–13</title></rect></g>
  <g><text class="job" x="74" y="201" text-anchor="end">J4</text><path class="guide" d="M88 205H1110"/><rect class="baseline" x="134.85" y="190" width="21.30" height="14" rx="2"><title>J4 · baseline 7–13</title></rect><rect class="current" x="650.00" y="190" width="21.30" height="14" rx="2"><title>J4 · Evölther 2.0 0–6</title></rect></g>
  <g><text class="job" x="74" y="223" text-anchor="end">J5</text><path class="guide" d="M88 227H1110"/><rect class="baseline" x="156.15" y="212" width="24.85" height="14" rx="2"><title>J5 · baseline 13–20</title></rect><rect class="current" x="671.30" y="212" width="24.85" height="14" rx="2"><title>J5 · Evölther 2.0 6–13</title></rect></g>
  <g><text class="job" x="74" y="245" text-anchor="end">J6</text><path class="guide" d="M88 249H1110"/><rect class="baseline" x="156.15" y="234" width="14.20" height="14" rx="2"><title>J6 · baseline 13–17</title></rect><rect class="current" x="699.70" y="234" width="14.20" height="14" rx="2"><title>J6 · Evölther 2.0 14–18</title></rect></g>
  <g><text class="job" x="74" y="267" text-anchor="end">J7</text><path class="guide" d="M88 271H1110"/><rect class="baseline" x="170.35" y="256" width="35.50" height="14" rx="2"><title>J7 · baseline 17–27</title></rect><rect class="current" x="713.90" y="256" width="35.50" height="14" rx="2"><title>J7 · Evölther 2.0 18–28</title></rect></g>
  <g><text class="job" x="74" y="289" text-anchor="end">J8</text><path class="guide" d="M88 293H1110"/><rect class="baseline" x="205.85" y="278" width="14.20" height="14" rx="2"><title>J8 · baseline 27–31</title></rect><rect class="current" x="699.70" y="278" width="14.20" height="14" rx="2"><title>J8 · Evölther 2.0 14–18</title></rect></g>
  <g><text class="job" x="74" y="311" text-anchor="end">J9</text><path class="guide" d="M88 315H1110"/><rect class="baseline" x="184.55" y="300" width="21.30" height="14" rx="2"><title>J9 · baseline 21–27</title></rect><rect class="current" x="713.90" y="300" width="21.30" height="14" rx="2"><title>J9 · Evölther 2.0 18–24</title></rect></g>
  <g><text class="job" x="74" y="333" text-anchor="end">J10</text><path class="guide" d="M88 337H1110"/><rect class="baseline" x="184.55" y="322" width="31.95" height="14" rx="2"><title>J10 · baseline 21–30</title></rect><rect class="current" x="713.90" y="322" width="31.95" height="14" rx="2"><title>J10 · Evölther 2.0 18–27</title></rect></g>
  <g><text class="job" x="74" y="355" text-anchor="end">J11</text><path class="guide" d="M88 359H1110"/><rect class="baseline" x="216.50" y="344" width="21.30" height="14" rx="2"><title>J11 · baseline 30–36</title></rect><rect class="current" x="738.75" y="344" width="21.30" height="14" rx="2"><title>J11 · Evölther 2.0 25–31</title></rect></g>
  <g><text class="job" x="74" y="377" text-anchor="end">J12</text><path class="guide" d="M88 381H1110"/><rect class="baseline" x="237.80" y="366" width="31.95" height="14" rx="2"><title>J12 · baseline 36–45</title></rect><rect class="current" x="770.70" y="366" width="31.95" height="14" rx="2"><title>J12 · Evölther 2.0 34–43</title></rect></g>
  <g><text class="job" x="74" y="399" text-anchor="end">J13</text><path class="guide" d="M88 403H1110"/><rect class="baseline" x="220.05" y="388" width="14.20" height="14" rx="2"><title>J13 · baseline 31–35</title></rect><rect class="current" x="745.85" y="388" width="14.20" height="14" rx="2"><title>J13 · Evölther 2.0 27–31</title></rect></g>
  <g><text class="job" x="74" y="421" text-anchor="end">J14</text><path class="guide" d="M88 425H1110"/><rect class="baseline" x="301.70" y="410" width="28.40" height="14" rx="2"><title>J14 · baseline 54–62</title></rect><rect class="current" x="770.70" y="410" width="28.40" height="14" rx="2"><title>J14 · Evölther 2.0 34–42</title></rect></g>
  <g><text class="job" x="74" y="443" text-anchor="end">J15</text><path class="guide" d="M88 447H1110"/><rect class="baseline" x="220.05" y="432" width="24.85" height="14" rx="2"><title>J15 · baseline 31–38</title></rect><rect class="current" x="713.90" y="432" width="24.85" height="14" rx="2"><title>J15 · Evölther 2.0 18–25</title></rect></g>
  <g><text class="job" x="74" y="465" text-anchor="end">J16</text><path class="guide" d="M88 469H1110"/><rect class="baseline" x="291.05" y="454" width="10.65" height="14" rx="2"><title>J16 · baseline 51–54</title></rect><rect class="current" x="760.05" y="454" width="10.65" height="14" rx="2"><title>J16 · Evölther 2.0 31–34</title></rect></g>
  <g><text class="job" x="74" y="487" text-anchor="end">J17</text><path class="guide" d="M88 491H1110"/><rect class="baseline" x="333.65" y="476" width="7.10" height="14" rx="2"><title>J17 · baseline 63–65</title></rect><rect class="current" x="802.65" y="476" width="7.10" height="14" rx="2"><title>J17 · Evölther 2.0 43–45</title></rect></g>
  <g><text class="job" x="74" y="509" text-anchor="end">J18</text><path class="guide" d="M88 513H1110"/><rect class="baseline" x="369.15" y="498" width="28.40" height="14" rx="2"><title>J18 · baseline 73–81</title></rect><rect class="current" x="831.05" y="498" width="28.40" height="14" rx="2"><title>J18 · Evölther 2.0 51–59</title></rect></g>
  <g><text class="job" x="74" y="531" text-anchor="end">J19</text><path class="guide" d="M88 535H1110"/><rect class="baseline" x="234.25" y="520" width="3.55" height="14" rx="2"><title>J19 · baseline 35–36</title></rect><rect class="current" x="760.05" y="520" width="3.55" height="14" rx="2"><title>J19 · Evölther 2.0 31–32</title></rect></g>
  <g><text class="job" x="74" y="553" text-anchor="end">J20</text><path class="guide" d="M88 557H1110"/><rect class="baseline" x="234.25" y="542" width="3.55" height="14" rx="2"><title>J20 · baseline 35–36</title></rect><rect class="current" x="745.85" y="542" width="3.55" height="14" rx="2"><title>J20 · Evölther 2.0 27–28</title></rect></g>
  <g><text class="job" x="74" y="575" text-anchor="end">J21</text><path class="guide" d="M88 579H1110"/><rect class="baseline" x="340.75" y="564" width="28.40" height="14" rx="2"><title>J21 · baseline 65–73</title></rect><rect class="current" x="859.45" y="564" width="28.40" height="14" rx="2"><title>J21 · Evölther 2.0 59–67</title></rect></g>
  <g><text class="job" x="74" y="597" text-anchor="end">J22</text><path class="guide" d="M88 601H1110"/><rect class="baseline" x="269.75" y="586" width="21.30" height="14" rx="2"><title>J22 · baseline 45–51</title></rect><rect class="current" x="802.65" y="586" width="21.30" height="14" rx="2"><title>J22 · Evölther 2.0 43–49</title></rect></g>
  <g><text class="job" x="74" y="619" text-anchor="end">J23</text><path class="guide" d="M88 623H1110"/><rect class="baseline" x="301.70" y="608" width="14.20" height="14" rx="2"><title>J23 · baseline 54–58</title></rect><rect class="current" x="823.95" y="608" width="14.20" height="14" rx="2"><title>J23 · Evölther 2.0 49–53</title></rect></g>
  <g><text class="job" x="74" y="641" text-anchor="end">J24</text><path class="guide" d="M88 645H1110"/><rect class="baseline" x="397.55" y="630" width="21.30" height="14" rx="2"><title>J24 · baseline 81–87</title></rect><rect class="current" x="887.85" y="630" width="21.30" height="14" rx="2"><title>J24 · Evölther 2.0 67–73</title></rect></g>
  <g><text class="job" x="74" y="663" text-anchor="end">J25</text><path class="guide" d="M88 667H1110"/><rect class="baseline" x="330.10" y="652" width="7.10" height="14" rx="2"><title>J25 · baseline 62–64</title></rect><rect class="current" x="823.95" y="652" width="7.10" height="14" rx="2"><title>J25 · Evölther 2.0 49–51</title></rect></g>
  <g><text class="job" x="74" y="685" text-anchor="end">J26</text><path class="guide" d="M88 689H1110"/><rect class="baseline" x="301.70" y="674" width="31.95" height="14" rx="2"><title>J26 · baseline 54–63</title></rect><rect class="current" x="823.95" y="674" width="31.95" height="14" rx="2"><title>J26 · Evölther 2.0 49–58</title></rect></g>
  <g><text class="job" x="74" y="707" text-anchor="end">J27</text><path class="guide" d="M88 711H1110"/><rect class="baseline" x="418.85" y="696" width="21.30" height="14" rx="2"><title>J27 · baseline 87–93</title></rect><rect class="current" x="909.15" y="696" width="21.30" height="14" rx="2"><title>J27 · Evölther 2.0 73–79</title></rect></g>
  <g><text class="job" x="74" y="729" text-anchor="end">J28</text><path class="guide" d="M88 733H1110"/><rect class="baseline" x="337.20" y="718" width="35.50" height="14" rx="2"><title>J28 · baseline 64–74</title></rect><rect class="current" x="838.15" y="718" width="35.50" height="14" rx="2"><title>J28 · Evölther 2.0 53–63</title></rect></g>
  <g><text class="job" x="74" y="751" text-anchor="end">J29</text><path class="guide" d="M88 755H1110"/><rect class="baseline" x="440.15" y="740" width="28.40" height="14" rx="2"><title>J29 · baseline 93–101</title></rect><rect class="current" x="934.00" y="740" width="28.40" height="14" rx="2"><title>J29 · Evölther 2.0 80–88</title></rect></g>
  <g><text class="job" x="74" y="773" text-anchor="end">J30</text><path class="guide" d="M88 777H1110"/><rect class="baseline" x="468.55" y="762" width="24.85" height="14" rx="2"><title>J30 · baseline 101–108</title></rect><rect class="current" x="909.15" y="762" width="24.85" height="14" rx="2"><title>J30 · Evölther 2.0 73–80</title></rect></g>
  <g><text class="job" x="74" y="795" text-anchor="end">J31</text><path class="guide" d="M88 799H1110"/><rect class="baseline" x="493.40" y="784" width="14.20" height="14" rx="2"><title>J31 · baseline 108–112</title></rect><rect class="current" x="962.40" y="784" width="14.20" height="14" rx="2"><title>J31 · Evölther 2.0 88–92</title></rect></g>
  <text class="meta" x="408.2" y="868" text-anchor="middle">optimum 84</text><text class="meta" x="948.2" y="868" text-anchor="middle">optimum 84</text>
  <text class="meta" x="74" y="888">Bars show activity start and finish times; vertical solid lines mark each schedule’s terminal makespan.</text>
</svg>
