<svg xmlns="http://www.w3.org/2000/svg" viewBox="0 0 1040 560" role="img" aria-label="Worst accepted RCPSP gaps">
  <style>
    .bg{fill:#050608}.axis{stroke:#343c4d;stroke-width:1}.grid{stroke:#202633;stroke-width:1}.bar{fill:#168cff}.bar2{fill:#5f6878}.muted{fill:#8f98aa;font:13px Inter,Arial,sans-serif}.label{fill:#cbd5e1;font:14px Inter,Arial,sans-serif}.title{fill:#f8fafc;font:600 22px Inter,Arial,sans-serif}.value{fill:#f8fafc;font:600 14px Inter,Arial,sans-serif}.opt{fill:#168cff}
  </style>
  <rect class="bg" width="1040" height="560"/>
  <text x="64" y="48" class="title">Tail behavior kept visible</text>
  <text x="976" y="48" class="muted" text-anchor="end">largest accepted-candidate gaps</text>
  <g transform="translate(64 88)">
    <path class="axis" d="M128 0 V398 H904"/>
    <path class="grid" d="M304 0V398M480 0V398M656 0V398M832 0V398"/>
    <text x="128" y="430" class="muted">0%</text>
    <text x="304" y="430" class="muted" text-anchor="middle">5%</text>
    <text x="480" y="430" class="muted" text-anchor="middle">10%</text>
    <text x="656" y="430" class="muted" text-anchor="middle">15%</text>
    <text x="832" y="430" class="muted" text-anchor="middle">20%</text>
    <g transform="translate(0 12)">
      <text x="0" y="20" class="label">j3025_10</text><rect x="128" y="2" width="789" height="24" class="bar"/><text x="932" y="20" class="value">22.41% | 71 vs 58</text>
    </g>
    <g transform="translate(0 62)">
      <text x="0" y="20" class="label">j3025_8</text><rect x="128" y="2" width="663" height="24" class="bar"/><text x="806" y="20" class="value">18.84% | 82 vs 69</text>
    </g>
    <g transform="translate(0 112)">
      <text x="0" y="20" class="label">j3025_2</text><rect x="128" y="2" width="657" height="24" class="bar"/><text x="800" y="20" class="value">18.67% | 89 vs 75</text>
    </g>
    <g transform="translate(0 162)">
      <text x="0" y="20" class="label">j3037_8</text><rect x="128" y="2" width="636" height="24" class="bar"/><text x="779" y="20" class="value">18.06% | 85 vs 72</text>
    </g>
    <g transform="translate(0 212)">
      <text x="0" y="20" class="label">j3013_1</text><rect x="128" y="2" width="607" height="24" class="bar2"/><text x="750" y="20" class="value">17.24% | 68 vs 58</text>
    </g>
    <g transform="translate(0 262)">
      <text x="0" y="20" class="label">j3025_6</text><rect x="128" y="2" width="607" height="24" class="bar2"/><text x="750" y="20" class="value">17.24% | 68 vs 58</text>
    </g>
    <g transform="translate(0 312)">
      <text x="0" y="20" class="label">j3025_3</text><rect x="128" y="2" width="602" height="24" class="bar2"/><text x="745" y="20" class="value">17.11% | 89 vs 76</text>
    </g>
    <g transform="translate(0 362)">
      <text x="0" y="20" class="label">j3037_6</text><rect x="128" y="2" width="579" height="24" class="bar2"/><text x="722" y="20" class="value">16.44% | 85 vs 73</text>
    </g>
  </g>
  <text x="64" y="520" class="muted">The tail view is not hidden: worst residual gaps remain part of the public result definition.</text>
</svg>
