<svg xmlns="http://www.w3.org/2000/svg" viewBox="0 0 1040 560" role="img" aria-label="Largest Evölther 2.0 residual RCPSP gaps">
  <style>.bg{fill:#050608}.axis{stroke:#343c4d}.grid{stroke:#202735}.bar{fill:#168cff}.bar2{fill:#7aaee8}.muted{fill:#8f98aa;font:13px Inter,Arial,sans-serif}.label{fill:#cbd5e1;font:14px Inter,Arial,sans-serif}.title{fill:#f8fafc;font:600 22px Inter,Arial,sans-serif}.value{fill:#f8fafc;font:600 13px Inter,Arial,sans-serif}</style>
  <rect class="bg" width="1040" height="560"/><text x="64" y="48" class="title">Tail behavior kept visible</text><text x="976" y="48" class="muted" text-anchor="end">largest Evölther 2.0 residual gaps</text>
  <path class="axis" d="M190 78V462H930"/><path class="grid" d="M396 78V462M602 78V462M808 78V462"/>
  <g transform="translate(0 92)"><text x="64" y="20" class="label">j3025_3</text><rect x="190" y="2" width="704" height="24" class="bar"/><text x="904" y="20" class="value">17.11% · 89 vs 76</text></g>
  <g transform="translate(0 136)"><text x="64" y="20" class="label">j3025_2</text><rect x="190" y="2" width="659" height="24" class="bar"/><text x="859" y="20" class="value">16.00% · 87 vs 75</text></g>
  <g transform="translate(0 180)"><text x="64" y="20" class="label">j3013_3</text><rect x="190" y="2" width="650" height="24" class="bar"/><text x="850" y="20" class="value">15.79% · 88 vs 76</text></g>
  <g transform="translate(0 224)"><text x="64" y="20" class="label">j3025_6</text><rect x="190" y="2" width="639" height="24" class="bar"/><text x="839" y="20" class="value">15.52% · 67 vs 58</text></g>
  <g transform="translate(0 268)"><text x="64" y="20" class="label">j3013_2</text><rect x="190" y="2" width="598" height="24" class="bar2"/><text x="798" y="20" class="value">14.52% · 71 vs 62</text></g>
  <g transform="translate(0 312)"><text x="64" y="20" class="label">j3013_7</text><rect x="190" y="2" width="588" height="24" class="bar2"/><text x="788" y="20" class="value">14.29% · 88 vs 77</text></g>
  <g transform="translate(0 356)"><text x="64" y="20" class="label">j3037_8</text><rect x="190" y="2" width="572" height="24" class="bar2"/><text x="772" y="20" class="value">13.89% · 82 vs 72</text></g>
  <g transform="translate(0 400)"><text x="64" y="20" class="label">j3025_7</text><rect x="190" y="2" width="563" height="24" class="bar2"/><text x="763" y="20" class="value">13.68% · 108 vs 95</text></g>
  <text x="190" y="490" class="muted">0%</text><text x="396" y="490" class="muted" text-anchor="middle">5%</text><text x="602" y="490" class="muted" text-anchor="middle">10%</text><text x="808" y="490" class="muted" text-anchor="middle">15%</text><text x="930" y="490" class="muted" text-anchor="end">18%</text>
  <text x="64" y="530" class="muted">Worst residual gaps remain part of the public result definition.</text>
</svg>
