<svg xmlns="http://www.w3.org/2000/svg" viewBox="0 0 560 500" role="img">
<style>text{font-family:Inter,Arial,sans-serif;fill:#0a0a0a}.muted{fill:#667085;font-size:12px}.axis{stroke:#98a2b3;stroke-width:1;fill:none}.grid{stroke:#e4e7ec;stroke-width:1}.accent{fill:#0b84fe;stroke:#006bd6}.soft{fill:#e8f3ff;stroke:#84bfff}.line{stroke:#0a0a0a;stroke-width:2;fill:none}</style>
<text x="72" y="30" font-size="16" font-weight="600">Accepted 26-circle packing</text><rect x="72" y="52" width="416" height="416" fill="none" stroke="#0a0a0a" stroke-width="1.4"/>
<circle class="soft" cx="118.084" cy="421.916" r="46.084"/>
<circle class="soft" cx="441.759" cy="421.759" r="46.241"/>
<circle class="soft" cx="107.210" cy="87.210" r="35.210"/>
<circle class="soft" cx="452.671" cy="87.329" r="35.329"/>
<circle class="soft" cx="171.720" cy="369.688" r="28.779"/>
<circle class="soft" cx="202.256" cy="429.565" r="38.435"/>
<circle class="soft" cx="279.762" cy="428.926" r="39.074"/>
<circle class="soft" cx="357.352" cy="429.482" r="38.518"/>
<circle class="soft" cx="387.891" cy="369.391" r="28.887"/>
<circle class="soft" cx="111.825" cy="336.236" r="39.825"/>
<circle class="soft" cx="448.001" cy="335.745" r="39.999"/>
<circle class="soft" cx="114.873" cy="253.594" r="42.873"/>
<circle class="soft" cx="239.797" cy="360.845" r="39.870"/>
<circle class="soft" cx="319.611" cy="360.693" r="39.944"/>
<circle class="soft" cx="374.393" cy="299.954" r="41.850"/>
<circle class="soft" cx="184.998" cy="300.616" r="41.558"/>
<circle class="soft" cx="279.446" cy="272.465" r="56.996"/>
<circle class="soft" cx="364.286" cy="210.773" r="47.902"/>
<circle class="soft" cx="444.958" cy="252.760" r="43.042"/>
<circle class="soft" cx="116.425" cy="166.310" r="44.425"/>
<circle class="soft" cx="194.614" cy="212.960" r="46.624"/>
<circle class="soft" cx="278.141" cy="166.543" r="48.934"/>
<circle class="soft" cx="364.161" cy="107.436" r="55.436"/>
<circle class="soft" cx="444.244" cy="165.964" r="43.756"/>
<circle class="soft" cx="194.558" cy="106.172" r="54.172"/>
<circle class="soft" cx="278.870" cy="84.806" r="32.806"/>
</svg>
