<svg xmlns="http://www.w3.org/2000/svg" viewBox="0 0 1200 980" role="img" aria-labelledby="title desc">
<title id="title">Evölther 2.0 exact 26-circle packing</title>
<desc id="desc">Display projection of the exact rational packing payload.</desc>
<style>svg{background:#05070b;color:#f5f7fb;font-family:Inter,Arial,sans-serif}.frame{fill:none;stroke:#738096;stroke-width:2}.grid{stroke:#18202c;stroke-width:1}.disk{fill:#168df0;fill-opacity:.28;stroke:#279dff;stroke-width:2}text{fill:#dce5f1;font-size:12px}.title{font-size:26px;font-weight:700}.note{fill:#96a3b6;font-size:15px}.value{fill:#279dff;font-size:22px;font-weight:700}</style>
<text class="title" x="86" y="52">Certified 26-circle geometry</text>
<text class="note" x="86" y="80">Binary64 display projection · canonical decimal payload is authoritative</text>
<path class="grid" d="M210 492.0H970M590.0 112V872"/>
<rect class="frame" x="210" y="112" width="760" height="760"/>
<circle class="disk" cx="294.19205" cy="787.80795" r="84.19205"/><text x="294.19205" y="791.80795" text-anchor="middle">1</text><circle class="disk" cx="450.72351" cy="799.24343" r="72.75657"/><text x="450.72351" y="803.24343" text-anchor="middle">2</text><circle class="disk" cx="601.70339" cy="793.67400" r="78.32600"/><text x="601.70339" y="797.67400" text-anchor="middle">3</text><circle class="disk" cx="761.16470" cy="790.83949" r="81.16051"/><text x="761.16470" y="794.83949" text-anchor="middle">4</text><circle class="disk" cx="905.67398" cy="807.67398" r="64.32602"/><text x="905.67398" y="811.67398" text-anchor="middle">5</text><circle class="disk" cx="280.21758" cy="634.03198" r="70.21758"/><text x="280.21758" y="638.03198" text-anchor="middle">6</text><circle class="disk" cx="405.76304" cy="565.44732" r="72.84017"/><text x="405.76304" y="569.44732" text-anchor="middle">7</text><circle class="disk" cx="515.79755" cy="665.56131" r="75.92275"/><text x="515.79755" y="669.56131" text-anchor="middle">8</text><circle class="disk" cx="675.93810" cy="647.99300" r="85.17859"/><text x="675.93810" y="651.99300" text-anchor="middle">9</text><circle class="disk" cx="871.03196" cy="648.09679" r="98.96804"/><text x="871.03196" y="652.09679" text-anchor="middle">10</text><circle class="disk" cx="281.38478" cy="492.43444" r="71.38478"/><text x="281.38478" y="496.43444" text-anchor="middle">11</text><circle class="disk" cx="406.04242" cy="419.63300" r="72.97442"/><text x="406.04242" y="423.63300" text-anchor="middle">12</text><circle class="disk" cx="567.22780" cy="493.01226" r="104.12793"/><text x="567.22780" y="497.01226" text-anchor="middle">13</text><circle class="disk" cx="760.73961" cy="495.39586" r="89.39856"/><text x="760.73961" y="499.39586" text-anchor="middle">14</text><circle class="disk" cx="910.06612" cy="494.06382" r="59.93388"/><text x="910.06612" y="498.06382" text-anchor="middle">15</text><circle class="disk" cx="280.36999" cy="350.68330" r="70.36999"/><text x="280.36999" y="354.68330" text-anchor="middle">16</text><circle class="disk" cx="390.15126" cy="294.89217" r="52.77455"/><text x="390.15126" y="298.89217" text-anchor="middle">17</text><circle class="disk" cx="517.00755" cy="319.55166" r="76.45628"/><text x="517.00755" y="323.55166" text-anchor="middle">18</text><circle class="disk" cx="679.93396" cy="338.01670" r="87.51315"/><text x="679.93396" y="342.01670" text-anchor="middle">19</text><circle class="disk" cx="868.72348" cy="338.24476" r="101.27652"/><text x="868.72348" y="342.24476" text-anchor="middle">20</text><circle class="disk" cx="294.47870" cy="196.47870" r="84.47870"/><text x="294.47870" y="200.47870" text-anchor="middle">21</text><circle class="disk" cx="451.61917" cy="185.07501" r="73.07501"/><text x="451.61917" y="189.07501" text-anchor="middle">22</text><circle class="disk" cx="603.22736" cy="190.63510" r="78.63510"/><text x="603.22736" y="194.63510" text-anchor="middle">23</text><circle class="disk" cx="761.79584" cy="191.93875" r="79.93875"/><text x="761.79584" y="195.93875" text-anchor="middle">24</text><circle class="disk" cx="905.45604" cy="176.54396" r="64.54396"/><text x="905.45604" y="180.54396" text-anchor="middle">25</text><circle class="disk" cx="389.60809" cy="689.82000" r="52.57731"/><text x="389.60809" y="693.82000" text-anchor="middle">26</text>
<text class="value" x="600" y="930" text-anchor="middle">sum radii 2.635983084917607783…</text>
</svg>
